<?xml version="1.0" encoding="utf-8"?>
<!-- Generator: Adobe Illustrator 26.5.0, SVG Export Plug-In . SVG Version: 6.00 Build 0)  -->
<svg version="1.1" id="Camada_1" xmlns="http://www.w3.org/2000/svg" xmlns:xlink="http://www.w3.org/1999/xlink" x="0px" y="0px"
	 viewBox="0 0 831.6 158" style="enable-background:new 0 0 831.6 158;" xml:space="preserve">
<style type="text/css">
	.st0{fill:url(#SVGID_1_);}
	.st1{fill:#FFFFFF;}
</style>
<linearGradient id="SVGID_1_" gradientUnits="userSpaceOnUse" x1="0" y1="150.2" x2="157.9002" y2="150.2" gradientTransform="matrix(1 0 0 -1 0 229.2)">
	<stop  offset="0" style="stop-color:#00F8FF"/>
	<stop  offset="1" style="stop-color:#0093E5"/>
</linearGradient>
<path class="st0" d="M79,0C35.4,0,0,35.4,0,79c0,31.2,18.1,58.2,44.5,71V74.5l17.8,0.3v81.4c5.4,1.2,10.9,1.8,16.7,1.8
	s11.5-0.6,17-1.8c-10.7-8.5-17.6-21.9-17.6-36.4V48.4h17.9v24h28.6v16.9H96.3v31.6c0,13,8.2,24.1,20.9,27.2
	c24.3-13.5,40.7-39.4,40.7-69.1C158,35.4,122.6,0,79,0z M61.2,65.1c-2.1,2.1-4.7,3.2-7.7,3.2s-5.7-1.1-7.8-3.2s-3.2-4.7-3.2-7.8
	c0-3,1.1-5.6,3.2-7.7c2.1-2.1,4.7-3.2,7.8-3.2c3,0,5.6,1.1,7.7,3.3c2.1,2.2,3.2,4.8,3.2,7.8C64.4,60.5,63.3,63,61.2,65.1z"/>
<g>
	<g>
		<g>
			<path class="st1" d="M241.8,40c3,0,5.6-1.1,7.7-3.2s3.2-4.7,3.2-7.7s-1.1-5.7-3.2-7.8c-2.1-2.2-4.7-3.3-7.7-3.3s-5.7,1.1-7.8,3.2
				c-2.1,2.1-3.2,4.7-3.2,7.7c0,3.1,1.1,5.7,3.2,7.8C236.2,39,238.8,40,241.8,40z"/>
		</g>
		<path class="st1" d="M284.9,94.4c0,14.9,10.7,27.3,26.7,28v16.9c-24.6,0-44.6-21.3-44.6-46V21.9h17.9v24h27v16.9h-27V94.4z"/>
		<path class="st1" d="M709.4,94.4c0,14.9,10.7,27.3,26.7,28v16.9c-24.6,0-44.6-21.3-44.6-46V21.9h17.9v24h27v16.9h-27V94.4
			L709.4,94.4z"/>
		<path class="st1" d="M441.9,91.7c0,15.3,10.6,29,27.6,30.2c3,0.1,6,0.1,9.2,0.1v17.3h-9.2c-25.2,0-45.8-20.4-45.8-45.8V21.9h18.2
			V91.7z"/>
		<path class="st1" d="M575.9,96c0-33.2-24-51-46.7-51c-26,0-47.2,21.3-47.2,47.5c0,26.1,21.2,47.4,47.2,47.4h10.1v-17.8h-0.6
			c-3.1,0-6.3,0-9.4-0.3l0,0c-12.5-0.9-22-7.4-26.2-17.9h72.8L575.9,96L575.9,96z M501.4,86c2.8-14.1,13.8-23.1,28.1-23.1
			c15.9,0,26.7,11.9,27.1,23.1H501.4z"/>
		<path class="st1" d="M662.4,90.1c0-15.7-12.6-28.6-28.3-28.6c-15.8,0-28.4,12.9-28.4,28.6v49.1h-18.1V91.7
			c0-25.9,21.3-47.3,46.5-47.3c25.8,0,46.4,21.7,46.4,47.4v47.4h-18.1V90.1L662.4,90.1z"/>
		<path class="st1" d="M413.5,92.6v47h-18.4v-9.7V92.6c0-4-0.8-7.7-2.3-11.2s-3.6-6.6-6.1-9.1c-2.6-2.6-5.6-4.6-9-6.2
			c-3.4-1.5-7.1-2.3-11-2.3s-7.7,0.8-11.1,2.3c-3.5,1.5-6.5,3.6-9.1,6.2s-4.6,5.6-6,9.1s-2.2,7.2-2.2,11.2s0.7,7.7,2.2,11.1
			c1.4,3.4,3.5,6.5,6,9c2.6,2.6,5.6,4.6,9.1,6.2c3.5,1.5,7.2,2.3,11.1,2.3v18.5c-6.4,0-12.5-1.2-18.2-3.7
			c-5.7-2.4-10.6-5.8-14.9-10.1c-4.3-4.3-7.6-9.3-10.1-15c-2.4-5.7-3.7-11.8-3.7-18.3s1.2-12.6,3.7-18.4c2.4-5.8,5.8-10.7,10.1-15
			c4.3-4.2,9.2-7.6,14.9-10.1c5.7-2.5,11.7-3.8,18.2-3.8c6.4,0,12.5,1.3,18.2,3.8s10.6,5.9,14.9,10.1s7.6,9.2,10.1,15
			C412.3,80,413.5,86.1,413.5,92.6"/>
		<g>
			<polygon class="st1" points="233.1,139.6 250.9,139.9 250.9,46.5 233.1,46.2 			"/>
		</g>
		<path class="st1" d="M805.1,83.9h-24c-5.4,0-9.9-4.7-9.9-10.4s4.4-10.4,9.9-10.4h45.3V45.9h-45.3c-14.7,0-26.5,12.4-26.5,27.7
			s11.9,27.7,26.5,27.7h24c5.4,0,9.9,4.7,9.9,10.4s-4.4,10.4-9.9,10.4h-48.6v17.3h48.6c14.6,0,26.5-12.4,26.5-27.7
			C831.5,96.3,819.7,83.9,805.1,83.9z"/>
	</g>
</g>
</svg>
