<?xml version="1.0" encoding="utf-8"?>
<!-- Generator: Adobe Illustrator 26.5.0, SVG Export Plug-In . SVG Version: 6.00 Build 0)  -->
<svg version="1.1" id="Camada_1" xmlns="http://www.w3.org/2000/svg" xmlns:xlink="http://www.w3.org/1999/xlink" x="0px" y="0px"
	 viewBox="0 0 770.5 219" style="enable-background:new 0 0 770.5 219;" xml:space="preserve">
<style type="text/css">
	.st0{fill:#FFFFFF;}
</style>
<g>
	<g>
		<path class="st0" d="M309.1,188.7v13.7h-3v-13.7c0-4.7-0.5-8.5-3.7-10.8c-1.6-1.1-3.6-1.6-5.7-1.5c-2,0.1-3.9,0.7-5.2,2
			c-1.5,1.3-2.4,3.1-2.7,5.1c-0.3,1.4-0.4,2.9-0.4,4.4v14.4h-3v-28.2h2.7v4.2c0.5-0.7,1-1.4,1.6-2c1.9-1.8,4.5-2.8,7-2.9
			c2.6-0.2,5.4,0.3,7.6,2C308.5,178.6,309.2,183.6,309.1,188.7z"/>
		<path class="st0" d="M319.9,196.8c1.7,2.3,4.6,3.5,7.6,3.5c2.1,0,4.1-0.5,5.8-1.5c1.6-1,2.9-2.5,3.8-4.4l2.7,1.2
			c-1.2,2.7-3,4.6-5.1,5.8c-2.1,1.3-4.6,1.8-7.1,1.8c-4,0-7.8-1.6-10.1-4.6c-2.3-3-3.1-6.7-3.1-10.2c0-3.7,0.8-7.4,3.1-10.4
			c2.5-3.1,6.1-4.5,10-4.5c4,0,7.5,1.5,9.9,4.5s3.1,7.1,3,11.2h-22.8C317.7,192,318.3,194.7,319.9,196.8z M317.6,186.5h19.5
			c-0.2-2.6-0.7-4.9-2.1-6.7c-1.7-2.2-4.6-3.4-7.6-3.4c-2.9-0.1-5.8,1.1-7.6,3.4C318.5,181.7,317.8,184,317.6,186.5z"/>
		<path class="st0" d="M366.3,181.9c-0.7-1.6-2-3.2-3.4-4.1c-1.5-1-3.3-1.4-5.2-1.4c-3,0-5.9,1.1-7.5,3.5c-1.8,2.3-2.4,5.4-2.4,8.5
			c0,3,0.6,6.2,2.4,8.5c1.7,2.3,4.5,3.5,7.5,3.5c1.8,0,3.7-0.5,5.2-1.4s2.6-2.4,3.3-4l3,1c-1,2.1-2.5,4.1-4.4,5.3
			c-2.1,1.4-4.4,2-7.2,2c-4.1,0-7.6-1.5-10-4.5s-3-6.8-3.1-10.3c0.1-3.6,0.7-7.3,3.1-10.3c2.5-3.1,5.9-4.5,10-4.5
			c2.6,0,4.9,0.5,6.9,1.8s3.8,3.3,4.6,5.6L366.3,181.9z"/>
		<path class="st0" d="M380.9,192.6c0,2.4-0.2,3.8,0.6,5.1c0.6,1.4,2,2.1,3.5,2.3s3.2,0.1,4.7-0.2v2.7c-1.8,0.4-3.8,0.5-5.5,0.3
			c-2.5-0.4-4.3-1.4-5.4-3.6c-1-1.9-0.9-3.9-0.9-6.5V177h-6.3v-2.7h6.3v-7.8h3v7.8h8.8v2.7h-8.8L380.9,192.6L380.9,192.6z"/>
		<path class="st0" d="M414.2,202.5v-4.9c-2.5,4-6.5,5.6-11.5,5.6c-5.3,0-9.2-3.2-9.2-8.5c0-3.6,1.5-5.9,5-7.7
			c3.4-1.8,8.8-2.2,15.4-3.2c0.1-5.2-3.4-7.4-7.7-7.4c-3.1,0-6,0.5-8.6,4l-2.1-2c2.9-3.7,6.7-4.9,11.1-4.9c2.7,0,5.4,0.9,7.2,2.6
			c2.6,2.1,3.3,5.6,3.3,8.9v17.5L414.2,202.5L414.2,202.5z M413.9,186.5c-5.4,0.8-8.9,1.3-10.4,1.7c-3.9,0.8-6.9,3-6.9,6.3
			c0,3.7,2.7,6,6.5,6c4.4,0,7.8-1.7,9.6-5.2C413.9,193,413.9,190.7,413.9,186.5z"/>
		<path class="st0" d="M447.5,188.7v13.7h-3v-13.7c0-4.7-0.5-8.5-3.7-10.8c-1.6-1.1-3.6-1.6-5.7-1.5c-2,0.1-3.9,0.7-5.2,2
			c-1.5,1.3-2.4,3.1-2.7,5.1c-0.3,1.4-0.4,2.9-0.4,4.4v14.4h-3v-28.2h2.7v4.2c0.5-0.7,1-1.4,1.6-2c1.9-1.8,4.5-2.8,7-2.9
			c2.6-0.2,5.4,0.3,7.6,2C446.8,178.6,447.6,183.6,447.5,188.7z"/>
		<path class="st0" d="M478.4,164.8v37.6h-2.7v-4.9c-0.2,0.3-0.3,0.5-0.5,0.7c-2.2,3.2-5.6,4.9-9.7,4.9c-3.9,0-7.4-1.6-9.8-4.6
			s-3-6.7-3-10.3s0.7-7.4,3-10.3c2.2-2.9,5.7-4.5,9.5-4.5c4,0,7.8,1.7,10,4.8l0.2,0.2v-13.6L478.4,164.8L478.4,164.8z M475.7,188.3
			c0-3.1-0.6-6.3-2.4-8.5c-1.7-2.4-4.5-3.4-7.5-3.4s-5.9,1.1-7.6,3.5c-1.7,2.2-2.3,5.4-2.3,8.5s0.6,6.2,2.3,8.5
			c1.7,2.4,4.6,3.6,7.5,3.6c3,0,5.9-1.2,7.6-3.5C475.1,194.6,475.7,191.4,475.7,188.3z"/>
		<path class="st0" d="M487.3,198.6c-2.4-3-3.1-6.7-3.1-10.3s0.8-7.3,3.1-10.3c2.3-2.9,6-4.5,10-4.5s7.7,1.5,10,4.5
			c2.4,3,3.1,6.7,3.1,10.3c0,3.7-0.7,7.4-3.1,10.3c-2.4,3.1-6,4.6-10,4.6C493.3,203.2,489.7,201.7,487.3,198.6z M504.9,179.8
			c-1.7-2.3-4.6-3.4-7.6-3.4s-5.9,1.1-7.5,3.4c-1.8,2.3-2.4,5.4-2.4,8.5s0.6,6.2,2.4,8.5c1.7,2.3,4.5,3.5,7.5,3.5s5.9-1.2,7.6-3.5
			c1.8-2.3,2.3-5.4,2.3-8.5C507.2,185.3,506.7,182.1,504.9,179.8z"/>
		<path class="st0" d="M552.4,188.3c0,3.6-0.7,7.4-3,10.3c-2.4,3-5.9,4.6-9.8,4.6c-4,0-7.5-1.7-9.7-4.9l-0.2-0.2V215h-3v-40.7h2.8
			v4.6l0.4-0.6c2.2-3.1,6-4.8,10-4.8c3.8,0,7.3,1.6,9.6,4.5C551.6,180.9,552.4,184.8,552.4,188.3z M549.2,188.3
			c0-3.1-0.6-6.2-2.3-8.5c-1.7-2.4-4.5-3.5-7.6-3.5c-3,0-5.8,1.1-7.5,3.4c-1.7,2.2-2.4,5.4-2.4,8.5s0.6,6.3,2.4,8.6
			c1.7,2.3,4.6,3.5,7.6,3.5s5.8-1.3,7.5-3.6C548.7,194.5,549.2,191.4,549.2,188.3z"/>
		<path class="st0" d="M559.7,198.6c-2.4-3-3.1-6.7-3.1-10.3s0.8-7.3,3.1-10.3c2.3-2.9,6-4.5,10-4.5s7.7,1.5,10,4.5
			c2.4,3,3.1,6.7,3.1,10.3c0,3.7-0.7,7.4-3.1,10.3c-2.4,3.1-6,4.6-10,4.6C565.8,203.2,562.1,201.7,559.7,198.6z M577.4,179.8
			c-1.7-2.3-4.6-3.4-7.6-3.4s-5.9,1.1-7.5,3.4c-1.8,2.3-2.4,5.4-2.4,8.5s0.6,6.2,2.4,8.5c1.7,2.3,4.5,3.5,7.5,3.5s5.9-1.2,7.6-3.5
			c1.8-2.3,2.3-5.4,2.3-8.5C579.6,185.3,579.1,182.1,577.4,179.8z"/>
		<path class="st0" d="M594.9,192.6c0,2.4-0.2,3.8,0.6,5.1c0.6,1.4,2,2.1,3.5,2.3s3.2,0.1,4.7-0.2v2.7c-1.8,0.4-3.8,0.5-5.5,0.3
			c-2.5-0.4-4.3-1.4-5.4-3.6c-1-1.9-0.9-3.9-0.9-6.5V177h-6.3v-2.7h6.3v-7.8h3v7.8h8.8v2.7h-8.8L594.9,192.6L594.9,192.6z"/>
		<path class="st0" d="M612,196.8c1.7,2.3,4.6,3.5,7.6,3.5c2.1,0,4.1-0.5,5.8-1.5c1.6-1,2.9-2.5,3.8-4.4l2.7,1.2
			c-1.2,2.7-3,4.6-5.1,5.8c-2.1,1.3-4.6,1.8-7.1,1.8c-4,0-7.8-1.6-10.1-4.6s-3.1-6.7-3.1-10.2c0-3.7,0.8-7.4,3.1-10.4
			c2.5-3.1,6.1-4.5,10-4.5c4,0,7.5,1.5,9.9,4.5s3.1,7.1,3,11.2h-22.8C609.9,192,610.5,194.7,612,196.8z M609.8,186.5h19.5
			c-0.2-2.6-0.7-4.9-2.1-6.7c-1.7-2.2-4.6-3.4-7.6-3.4c-2.9-0.1-5.8,1.1-7.6,3.4C610.6,181.7,610,184,609.8,186.5z"/>
		<path class="st0" d="M661.3,188.7v13.7h-3v-13.7c0-4.7-0.5-8.5-3.7-10.8c-1.6-1.1-3.6-1.6-5.7-1.5c-2,0.1-3.9,0.7-5.2,2
			c-1.5,1.3-2.4,3.1-2.7,5.1c-0.3,1.4-0.4,2.9-0.4,4.4v14.4h-3v-28.2h2.7v4.2c0.5-0.7,1-1.4,1.6-2c1.9-1.8,4.5-2.8,7-2.9
			c2.6-0.2,5.4,0.3,7.6,2C660.6,178.6,661.4,183.6,661.3,188.7z"/>
		<path class="st0" d="M688.2,181.9c-0.7-1.6-2-3.2-3.4-4.1c-1.5-1-3.3-1.4-5.2-1.4c-3,0-5.9,1.1-7.5,3.5c-1.8,2.3-2.4,5.4-2.4,8.5
			c0,3,0.6,6.2,2.4,8.5c1.7,2.3,4.5,3.5,7.5,3.5c1.8,0,3.7-0.5,5.2-1.4s2.6-2.4,3.3-4l3,1c-1,2.1-2.5,4.1-4.4,5.3
			c-2.1,1.4-4.4,2-7.2,2c-4.1,0-7.6-1.5-10-4.5s-3-6.8-3.1-10.3c0.1-3.6,0.7-7.3,3.1-10.3c2.5-3.1,5.9-4.5,10-4.5
			c2.6,0,4.9,0.5,6.9,1.8s3.8,3.3,4.6,5.6L688.2,181.9z"/>
		<path class="st0" d="M699.3,165.2v3.8h-3v-3.8H699.3z M699.3,174.3v28.2h-3v-28.2H699.3z"/>
		<path class="st0" d="M726.4,202.5v-4.9c-2.5,4-6.5,5.6-11.5,5.6c-5.3,0-9.2-3.2-9.2-8.5c0-3.6,1.5-5.9,5-7.7
			c3.4-1.8,8.8-2.2,15.4-3.2c0.1-5.2-3.4-7.4-7.7-7.4c-3.1,0-6,0.5-8.6,4l-2.1-2c2.9-3.7,6.7-4.9,11.1-4.9c2.7,0,5.4,0.9,7.2,2.6
			c2.6,2.1,3.3,5.6,3.3,8.9v17.5L726.4,202.5L726.4,202.5z M726,186.5c-5.4,0.8-8.9,1.3-10.4,1.7c-3.9,0.8-6.9,3-6.9,6.3
			c0,3.7,2.7,6,6.5,6c4.4,0,7.8-1.7,9.6-5.2C726,193,726,190.7,726,186.5z"/>
		<path class="st0" d="M739.4,165.2v3.8h-3v-3.8H739.4z M739.4,174.3v28.2h-3v-28.2H739.4z"/>
		<path class="st0" d="M765.5,182.3c-1.5-4.1-4.8-6-8.8-6.1c-3.8-0.1-7.4,1.6-7.4,4.5c0,2.6,1.9,3.7,5,4.6c1.4,0.4,3.3,0.9,5.9,1.6
			c4.5,1.2,8.3,3.8,8.3,8.1c0,2.2-1.4,4.8-3.4,6.1c-2.2,1.5-5.1,1.9-7.8,1.9c-3.1,0-5.9-0.7-8.4-2.9c-1.4-1.3-2.6-3-3.1-4.6l2.8-1
			c0.6,1.4,1.3,2.5,2.5,3.6c1.6,1.5,3.9,2.2,6.2,2.2c2.2,0,4.8-0.5,6.3-1.5c1.3-0.9,2-2.3,2-3.9c0-3-2.8-4.2-6.2-5.2l-5.5-1.6
			c-1.8-0.5-3.7-1.1-5.3-2.5c-1.5-1.3-2.1-3.2-2.1-4.9c0-2.8,1.9-5.2,4.4-6.3c2-0.9,4-1.1,6-1.1s4.1,0.4,5.9,1.4
			c2.7,1.4,5.1,4.2,5.8,6.8L765.5,182.3z"/>
	</g>
	<path class="st0" d="M244.4,181.8c-0.7-1.6-2-3.2-3.4-4.1c-1.5-1-3.3-1.4-5.2-1.4c-3,0-5.9,1.1-7.5,3.5c-1.8,2.3-2.4,5.4-2.4,8.5
		c0,3,0.6,6.2,2.4,8.5c1.7,2.3,4.5,3.5,7.5,3.5c1.8,0,3.7-0.5,5.2-1.4s2.6-2.4,3.3-4l3,1c-1,2.1-2.5,4.1-4.4,5.3
		c-2.1,1.4-4.4,2-7.2,2c-4.1,0-7.6-1.5-10-4.5s-3-6.8-3.1-10.3c0.1-3.6,0.7-7.3,3.1-10.3c2.5-3.1,5.9-4.5,10-4.5
		c2.6,0,4.9,0.5,6.9,1.8s3.8,3.3,4.6,5.6L244.4,181.8z"/>
	<path class="st0" d="M73.1,4C32.7,4-0.1,36.8-0.1,77.2c0,29,16.8,54,41.2,65.9V73l16.5,0.3v75.5c5,1.1,10.1,1.6,15.4,1.6
		c5.4,0,10.7-0.6,15.8-1.7c-9.9-7.9-16.3-20.3-16.3-33.7V48.8h16.6v22.3h26.5v15.6H89.1V116c0,12,7.6,22.4,19.4,25.2
		c22.5-12.5,37.7-36.5,37.7-64C146.3,36.8,113.5,4,73.1,4z M56.6,64.3c-1.9,1.9-4.4,2.9-7.2,2.9s-5.2-1-7.2-2.9s-3-4.4-3-7.3
		c0-2.8,1-5.2,3-7.1c2-2,4.4-3,7.2-3s5.2,1,7.1,3c2,2,3,4.4,3,7.3C59.6,60,58.6,62.4,56.6,64.3z"/>
	<g>
		<g>
			<g>
				<path class="st0" d="M224,41.1c2.8,0,5.2-1,7.2-2.9c1.9-1.9,2.9-4.3,2.9-7.1s-1-5.3-3-7.3s-4.4-3-7.1-3c-2.8,0-5.2,1-7.2,3
					s-3,4.4-3,7.1c0,2.9,1,5.3,3,7.3C218.8,40.1,221.2,41.1,224,41.1z"/>
			</g>
			<path class="st0" d="M263.9,91.4c0,13.8,9.9,25.3,24.8,26V133c-22.8,0-41.4-19.7-41.4-42.7V24.2h16.6v22.3H289v15.6h-25.1V91.4z"
				/>
			<path class="st0" d="M657.4,91.4c0,13.8,9.9,25.3,24.8,26V133c-22.8,0-41.4-19.7-41.4-42.7V24.2h16.6v22.3h25.1v15.6h-25.1
				L657.4,91.4L657.4,91.4z"/>
			<path class="st0" d="M409.4,88.9c0,14.2,9.8,26.9,25.6,28c2.8,0.1,5.6,0.1,8.5,0.1v16H435c-23.3,0-42.4-19-42.4-42.4V24.2h16.8
				V88.9z"/>
			<path class="st0" d="M533.7,93c0-30.7-22.3-47.3-43.2-47.3c-24.1,0-43.8,19.8-43.8,44s19.6,43.9,43.8,43.9h9.3v-16.5h-0.5
				c-2.9,0-5.9,0-8.7-0.3l0,0c-11.6-0.8-20.4-6.9-24.3-16.6h67.5L533.7,93L533.7,93z M464.6,83.7c2.6-13.1,12.8-21.5,26.1-21.5
				c14.8,0,24.8,11,25.1,21.5H464.6z"/>
			<path class="st0" d="M613.9,87.5c0-14.5-11.7-26.5-26.2-26.5c-14.6,0-26.3,12-26.3,26.5V133h-16.8V89c0-24.1,19.8-43.8,43.1-43.8
				c23.9,0,43,20.2,43,43.9V133h-16.8V87.5z"/>
			<path class="st0" d="M383.2,89.8v43.6h-17v-9V89.8c0-3.7-0.7-7.1-2.1-10.4c-1.4-3.2-3.3-6.1-5.7-8.5c-2.4-2.4-5.2-4.3-8.3-5.7
				c-3.2-1.4-6.6-2.1-10.2-2.1c-3.7,0-7.1,0.7-10.3,2.1c-3.2,1.4-6,3.3-8.4,5.7c-2.4,2.4-4.2,5.2-5.6,8.5c-1.3,3.3-2,6.7-2,10.4
				c0,3.7,0.7,7.1,2,10.3c1.3,3.2,3.2,6,5.6,8.4s5.2,4.3,8.4,5.7c3.2,1.4,6.7,2.1,10.3,2.1v17.1c-6,0-11.6-1.1-16.8-3.4
				c-5.2-2.3-9.8-5.4-13.8-9.4s-7.1-8.6-9.3-13.9c-2.3-5.3-3.4-10.9-3.4-16.9s1.1-11.7,3.4-17s5.4-10,9.3-13.9
				c4-3.9,8.6-7.1,13.8-9.4c5.2-2.3,10.9-3.5,16.8-3.5c6,0,11.6,1.2,16.8,3.5c5.2,2.3,9.8,5.5,13.8,9.4s7.1,8.6,9.3,13.9
				C382,78.1,383.2,83.8,383.2,89.8"/>
			<g>
				<polygon class="st0" points="215.9,133.3 232.4,133.6 232.4,47.1 215.9,46.8 				"/>
			</g>
			<path class="st0" d="M746.1,81.8h-22.3c-5.1,0-9.2-4.3-9.2-9.6c0-5.3,4.1-9.6,9.2-9.6h42v-16h-42c-13.5,0-24.5,11.5-24.5,25.6
				s11,25.6,24.5,25.6h22.3c5.1,0,9.2,4.3,9.2,9.6c0,5.3-4.1,9.6-9.2,9.6H701v16h45.1c13.5,0,24.5-11.5,24.5-25.6
				S759.6,81.8,746.1,81.8z"/>
		</g>
	</g>
	<path class="st0" d="M256.5,198.6c-2.4-3-3.1-6.7-3.1-10.3s0.8-7.3,3.1-10.3c2.3-2.9,6-4.5,10-4.5s7.7,1.5,10,4.5
		c2.4,3,3.1,6.7,3.1,10.3c0,3.7-0.7,7.4-3.1,10.3c-2.4,3.1-6,4.6-10,4.6C262.5,203.2,258.9,201.7,256.5,198.6z M274.1,179.8
		c-1.7-2.3-4.6-3.4-7.6-3.4s-5.9,1.1-7.5,3.4c-1.8,2.3-2.4,5.4-2.4,8.5s0.6,6.2,2.4,8.5c1.7,2.3,4.5,3.5,7.5,3.5s5.9-1.2,7.6-3.5
		c1.8-2.3,2.3-5.4,2.3-8.5C276.4,185.3,275.9,182.1,274.1,179.8z"/>
</g>
</svg>
